<?xml version="1.0" encoding="UTF-8" standalone="no" ?>
<!DOCTYPE svg PUBLIC "-//W3C//DTD SVG 1.1//EN" "http://www.w3.org/Graphics/SVG/1.1/DTD/svg11.dtd">
<svg xmlns="http://www.w3.org/2000/svg" xmlns:xlink="http://www.w3.org/1999/xlink" version="1.1" width="1080" height="1080" viewBox="0 0 1080 1080" xml:space="preserve">
<desc>Created with Fabric.js 5.2.4</desc>
<defs>
</defs>
<g transform="matrix(1 0 0 1 540 540)" id="cfb64fb3-80db-41c3-9363-56cb72c800be"  >
<rect style="stroke: none; stroke-width: 1; stroke-dasharray: none; stroke-linecap: butt; stroke-dashoffset: 0; stroke-linejoin: miter; stroke-miterlimit: 4; fill: rgb(255,255,255); fill-rule: nonzero; opacity: 1; visibility: hidden;" vector-effect="non-scaling-stroke"  x="-540" y="-540" rx="0" ry="0" width="1080" height="1080" />
</g>
<g transform="matrix(1 0 0 1 540 540)" id="7a83d908-bb19-47ba-a971-f5803aaaa61e"  >
</g>
<g transform="matrix(41.32 0 0 41.72 540 540)"  >
<g style="" vector-effect="non-scaling-stroke"   >
		<g transform="matrix(1 0 0 1 -1.11 -0.55)"  >
<path style="stroke: none; stroke-width: 1; stroke-dasharray: none; stroke-linecap: butt; stroke-dashoffset: 0; stroke-linejoin: miter; stroke-miterlimit: 4; fill: rgb(233,104,86); fill-rule: nonzero; opacity: 1;" vector-effect="non-scaling-stroke"  transform=" translate(-14.89, -15.45)" d="M 14.18 12.84 C 14.063503527030038 12.320845658218754 13.996536669217132 11.791807481496793 13.98 11.26 C 13.98 11.03 13.98 10.799999999999999 13.98 10.58 C 13.52279286997539 9.932187169190833 12.928776701011982 9.392793176683828 12.239999999999997 8.999999999999996 C 12.115287987470863 8.923489803779015 11.984907898047839 8.856628219459516 11.85 8.8 C 11.85 8.940000000000001 11.85 9.09 11.85 9.24 C 11.848077151997613 10.025278597278628 12.011629365126854 10.802151609642534 12.329999999999998 11.52 C 12.534014601829425 11.616314574866006 12.73114838465991 11.726575843228819 12.920000000000002 11.85 C 13.365680606244377 12.145937547068637 13.787019526922812 12.476989556173123 14.18 12.84 z M 17.32 14.47 C 17.32 14.58 17.23 14.71 17.18 14.82 L 17.53 14.68 C 18.123562210312482 13.922450534176024 18.840207814586858 13.270032601982841 19.65 12.750000000000002 C 19.90691904232675 12.589227535729613 20.174166187924687 12.445582194970722 20.450000000000003 12.32 C 20.682604188640813 11.902187221057067 20.867114585651507 11.459362268231397 21 11 C 20.55869281501658 11.116802395104418 20.132488917385 11.284599205195592 19.730000000000004 11.5 C 19.600898941438032 11.775957656203783 19.453919718600527 12.043192606817424 19.29 12.3 C 18.765074785148872 13.132811157050881 18.098333692595507 13.867241700624893 17.32 14.470000000000002 z M 15.61 18 C 15.61 17.89 15.61 17.76 15.61 17.64 L 15.379999999999999 17.94 C 15.24759059594562 18.891060956677897 14.94976496663961 19.811612901805564 14.499999999999996 20.66 C 14.360106301642423 20.93184957317694 14.199638939456038 21.192609036729813 14.019999999999996 21.44 C 14.03837072054655 21.896527893861556 14.108827372549278 22.349463513879094 14.229999999999997 22.790000000000003 C 14.553744667531237 22.461152603844262 14.841997534629293 22.099160631209497 15.09 21.709999999999997 C 15.064385218962526 21.410546764173 15.064385218962526 21.109453235827004 15.089999999999998 20.810000000000002 C 15.115913333234587 19.85196612793396 15.291362776896001 18.90386432660978 15.61 18 z M 18 11.25 C 17.984157187767316 11.785162641910306 17.917185833549635 12.317584907940883 17.8 12.84 C 18.19898643546576 12.47267652454829 18.627050849925062 12.13825120075196 19.080000000000002 11.84 C 19.268851615340093 11.716575843228819 19.465985398170574 11.606314574866007 19.67 11.51 C 19.988601125145472 10.788703368123599 20.152132056922966 10.008524547768472 20.15 9.219999999999999 C 20.150000000000002 9.069999999999999 20.150000000000002 8.919999999999998 20.150000000000002 8.79 C 20.015092101952163 8.846628219459514 19.88471201252914 8.913489803779013 19.76 8.989999999999998 C 19.067262050739892 9.389254983157045 18.467331096901184 9.931238060772696 18 10.579999999999998 C 18 10.69 18 10.82 18 10.94 C 18 11.059999999999999 18 11.14 18 11.25 z M 16.39 14 C 16.39 14.11 16.39 14.24 16.39 14.36 L 16.62 14.059999999999999 C 16.75240940405438 13.108939043322104 17.050235033360387 12.188387098194438 17.5 11.340000000000002 C 17.65 11.059999999999999 17.82 10.799999999999997 17.98 10.559999999999999 C 17.961629279453447 10.103472106138442 17.891172627450718 9.650536486120902 17.77 9.209999999999994 C 17.47420671338682 9.54766183764725 17.21602147418351 9.916497893651982 17 10.310000000000002 C 17.025614781037472 10.609453235827003 17.025614781037472 10.910546764173 17 11.210000000000003 C 16.94313368858378 12.166082607919316 16.737321164343538 13.107421858132895 16.39 14 z M 15.39 10.88 C 15.631161919347454 11.353432609763782 15.83511109316161 11.844916684365106 16 12.349999999999994 C 16.16488890683839 11.84491668436511 16.368838080652544 11.353432609763782 16.61 10.879999999999999 C 16.72 10.68 16.83 10.499999999999998 16.95 10.309999999999999 C 16.880629530290236 9.520268171185531 16.63822434867125 8.755496893965068 16.240000000000002 8.07 C 16.169999999999998 7.939999999999999 16.08 7.8199999999999985 15.999999999999998 7.699999999999998 C 15.919999999999998 7.8199999999999985 15.829999999999998 7.939999999999999 15.759999999999998 8.069999999999999 C 15.349141888876797 8.749980526698351 15.089904934236001 9.51063632781543 15 10.300000000000002 C 15.13 10.49 15.24 10.67 15.35 10.870000000000001 z M 14.47 14.68 L 14.82 14.82 C 14.77 14.71 14.72 14.58 14.68 14.47 C 13.919475275081766 13.875721052044153 13.266654551994696 13.15525051309314 12.75 12.340000000000002 C 12.586080281399473 12.083192606817425 12.439101058561969 11.815957656203782 12.31 11.54 C 11.896696784270766 11.307852827627869 11.456837301528308 11.126536704970672 10.999999999999998 11 C 11.12291865193757 11.443952832946941 11.293931503434303 11.873161558272077 11.509999999999998 12.28 C 11.782587421968952 12.405636200493905 12.046504783257943 12.54928742246133 12.299999999999999 12.709999999999997 C 13.132811157050881 13.234925214851128 13.867241700624893 13.901666307404493 14.470000000000002 14.68 z M 14.68 17.53 C 14.68 17.42 14.77 17.290000000000003 14.82 17.18 L 14.47 17.32 C 13.875721052044153 18.080524724918234 13.155250513093138 18.733345448005306 12.34 19.25 C 12.083192606817425 19.41391971860053 11.815957656203782 19.560898941438033 11.54 19.69 C 11.31154060174374 20.105081093267714 11.130406095501876 20.54449998803964 11 20.999999999999996 C 11.443952832946941 20.87708134806243 11.873161558272079 20.706068496565695 12.280000000000001 20.49 C 12.409101058561967 20.214042343796216 12.55608028139947 19.946807393182574 12.719999999999999 19.69 C 13.242867455078205 18.861586611129162 13.906126215057515 18.130648385845845 14.679999999999998 17.53 z M 11.26 14 C 11.791807481496793 14.016536669217132 12.320845658218754 14.083503527030038 12.84 14.2 C 12.472676524548291 13.80101356453424 12.13825120075196 13.37294915007494 11.84 12.920000000000002 C 11.717789119111373 12.73565963334873 11.610769822180977 12.541687157662386 11.52 12.339999999999998 C 10.795817632955192 12.018292598453648 10.01242274433103 11.85139542652937 9.219999999999995 11.85 L 8.79 11.85 C 8.846628219459514 11.984907898047839 8.913489803779013 12.115287987470863 8.989999999999998 12.24 C 9.389254983157045 12.932737949260108 9.931238060772696 13.532668903098816 10.579999999999998 14 L 11.26 14 z M 14.18 19.16 C 13.781013564534241 19.52732347545171 13.352949150074938 19.86174879924804 12.9 20.16 C 12.71114838465991 20.28342415677118 12.514014601829427 20.39368542513399 12.31 20.49 C 11.99139887485453 21.211296631876397 11.827867943077036 21.991475452231523 11.83 22.779999999999994 C 11.83 22.929999999999996 11.83 23.08 11.83 23.209999999999997 C 11.963941370421749 23.151316161505108 12.094182683865276 23.084525744354583 12.22 23.009999999999998 C 12.92430272642861 22.619121694442285 13.532433494863316 22.075903760840497 14.000000000000002 21.42 C 14 21.200000000000003 14 20.970000000000002 14 20.740000000000002 C 14.009960691503062 20.20883018192151 14.0702300503561 19.679799143100425 14.180000000000001 19.160000000000004 z M 12.84 17.82 C 12.320845658218754 17.93649647296996 11.791807481496793 18.003463330782868 11.26 18.02 L 10.58 18.02 C 9.932187169190833 18.47720713002461 9.392793176683831 19.071223298988016 9 19.76 C 8.923489803779015 19.88471201252914 8.856628219459516 20.015092101952163 8.8 20.150000000000002 L 9.24 20.150000000000002 C 10.02527859727863 20.15192284800239 10.802151609642536 19.988370634873146 11.520000000000001 19.67 C 11.616314574866006 19.465985398170577 11.726575843228819 19.268851615340093 11.849999999999998 19.080000000000002 C 12.145937547068637 18.634319393755625 12.47698955617312 18.21298047307719 12.839999999999996 17.820000000000004 z" stroke-linecap="round" />
</g>
		<g transform="matrix(1 0 0 1 -4.21 0.06)"  >
<path style="stroke: none; stroke-width: 1; stroke-dasharray: none; stroke-linecap: butt; stroke-dashoffset: 0; stroke-linejoin: miter; stroke-miterlimit: 4; fill: rgb(238,120,104); fill-rule: nonzero; opacity: 1;" vector-effect="non-scaling-stroke"  transform=" translate(-11.79, -16.05)" d="M 14.08 16.66 L 14.38 16.43 C 14.26022335149413 16.440354164243512 14.139776648505872 16.440354164243512 14.020000000000001 16.43 C 13.125417781081225 16.77915587211973 12.179408352047629 16.978493573237525 11.220000000000002 17.02 C 10.917012020073047 17.04047019295801 10.612987979926958 17.04047019295801 10.310000000000002 17.02 C 9.918565631268057 17.26480272456461 9.556238053371468 17.553322832889673 9.23 17.880000000000003 C 9.67053648612091 18.001172627450718 10.123472106138447 18.071629279453447 10.580000000000004 18.09 C 10.827390963270192 17.910361060543956 11.08815042682306 17.749893698357578 11.359999999999996 17.610000000000003 C 12.203753556632561 17.13586090902432 13.124526551254466 16.814267399873287 14.079999999999995 16.660000000000004 z M 14 15.61 C 14.119776648505871 15.599645835756487 14.240223351494127 15.599645835756487 14.36 15.61 L 14.059999999999999 15.379999999999999 C 13.108939043322104 15.24759059594562 12.188387098194436 14.94976496663961 11.34 14.499999999999998 C 11.059999999999999 14.349999999999998 10.799999999999997 14.179999999999998 10.559999999999999 14.019999999999998 C 10.103472106138442 14.03837072054655 9.650536486120902 14.10882737254928 9.209999999999994 14.23 C 9.538847396155738 14.553744667531237 9.900839368790507 14.841997534629293 10.290000000000003 15.09 C 10.589453235827001 15.064385218962526 10.890546764172996 15.064385218962526 11.189999999999998 15.089999999999996 C 12.148033872066042 15.115913333234587 13.096135673390226 15.291362776896 14.000000000000007 15.61 z" stroke-linecap="round" />
</g>
		<g transform="matrix(1 0 0 1 0 0)"  >
<path style="stroke: none; stroke-width: 1; stroke-dasharray: none; stroke-linecap: butt; stroke-dashoffset: 0; stroke-linejoin: miter; stroke-miterlimit: 4; fill: rgb(255,159,146); fill-rule: nonzero; opacity: 1;" vector-effect="non-scaling-stroke"  transform=" translate(-16, -16)" d="M 12.34 16 C 11.83675131606524 15.83479207919523 11.348349968360798 15.62738876715636 10.879999999999999 15.380000000000003 C 10.683342242264322 15.281923515359068 10.492974756092266 15.171710760206825 10.31 15.05 C 9.5186142764946 15.118122918541538 8.752864872334369 15.36425665559304 8.069999999999997 15.770000000000001 C 7.941111469814373 15.837346277775913 7.817433999015029 15.914226867732262 7.7 16 C 7.82 16.07 7.94 16.16 8.07 16.23 C 8.758776299551734 16.620762027366265 9.521886251575898 16.862640628231066 10.309999999999999 16.94 C 10.49 16.82 10.67 16.71 10.870000000000001 16.6 C 11.345325768500114 16.365780482663403 11.836537980453956 16.16528570227408 12.339999999999996 16 z M 15.34 14.08 L 15.57 14.38 C 15.57 14.260000000000002 15.57 14.13 15.57 14.020000000000001 C 15.220844127880268 13.125417781081225 15.021506426762475 12.179408352047629 14.98 11.220000000000002 C 14.959825815598533 10.913665124949857 14.959825815598533 10.60633487505015 14.98 10.300000000000004 C 14.738340043512185 9.912126667305937 14.453157559467734 9.553132246214687 14.129999999999999 9.23 C 14.035783298286978 9.673640425507728 13.992171421517984 10.126532991954974 14 10.58 C 14.179638939456042 10.827390963270188 14.340106301642425 11.088150426823061 14.48 11.36 C 14.922815449537277 12.209692434505552 15.213853333716887 13.13018434725967 15.34 14.079999999999995 z M 12 24.23 C 12.159572909130654 24.80396717204663 12.405735465151261 25.350245721023867 12.73 25.85 C 12.85899476785109 26.059896667631072 13.002687288223699 26.26039785884867 13.16 26.450000000000003 C 13.394409516376008 26.364571257220287 13.621770879490674 26.26092122403566 13.840000000000002 26.140000000000004 C 14.369207833468428 25.888934417517074 14.852575181092206 25.55091529330464 15.27 25.140000000000004 C 15.10862309983176 24.927976321383646 14.958418915011597 24.707676850314073 14.82 24.480000000000004 C 14.518386062701518 23.95448138820011 14.292807696850172 23.388852052931068 14.149999999999999 22.800000000000004 C 13.728191959176199 23.238521159094276 13.246811818592423 23.615546164306743 12.719999999999999 23.920000000000005 C 12.489091727638947 24.043286881027385 12.248247074220822 24.146983884582408 12 24.23 z M 8.44 21.16 C 8.304780086353789 21.732930043884796 8.250917868211298 22.322048054818293 8.279999999999998 22.909999999999997 Q 8.28 23.26 8.34 23.66 L 9.09 23.72 C 9.67842256332703 23.74580994935806 10.267546817545178 23.68858073609115 10.839999999999998 23.549999999999997 C 10.808066653450588 23.28450725222985 10.791372624741419 23.01740279288314 10.79 22.749999999999996 C 10.781323401896566 22.159894976805706 10.851954987522303 21.57129842992456 10.999999999999998 21.000000000000004 C 10.420400338471495 21.160860622453537 9.821505871948908 21.241610438164447 9.22 21.24 C 8.958738418454619 21.22754064077732 8.698351333964395 21.2008342731373 8.439999999999998 21.16 z M 6.88 16.7 C 6.472160536761867 17.119974800964798 6.134516232264373 17.602806156396213 5.879999999999998 18.13 C 5.7631524555969715 18.350259114279837 5.659632922230169 18.577334219729597 5.569999999999999 18.81 C 5.78 18.97 5.99 19.119999999999997 6.180000000000001 19.24 C 6.668428011198917 19.572437111323495 7.2045516803007015 19.828697481460196 7.77 20 C 7.860800658635254 19.753187738842684 7.974636269474009 19.515472198561753 8.11 19.29 C 8.411845085790949 18.758439132515914 8.789095180325505 18.27340329668577 9.23 17.849999999999998 C 8.640604569870254 17.708900580418454 8.0747372808287 17.483227316336407 7.550000000000001 17.18 C 7.32 17 7.09 16.85 6.88 16.7 z M 16.69 25.11 C 17.11388039875957 25.51765141046437 17.59996549380347 25.85521050424486 18.130000000000003 26.11 C 18.35025911427984 26.22684754440303 18.5773342197296 26.33036707776983 18.810000000000002 26.419999999999998 C 18.970000000000002 26.209999999999997 19.12 25.999999999999996 19.240000000000002 25.81 C 19.5715311465716 25.324655338978857 19.827761296725186 24.791966342606937 20 24.23 C 19.753187738842684 24.139199341364748 19.515472198561753 24.02536373052599 19.29 23.89 C 18.758439132515917 23.588154914209053 18.273403296685768 23.210904819674493 17.849999999999998 22.77 C 17.707192303149824 23.358852052931063 17.481613937298476 23.924481388200107 17.179999999999996 24.45 C 17.028597219543176 24.67861155668572 16.865028431678283 24.898928699524152 16.690000000000005 25.11 z M 23 24.77 L 22.69 24.77 C 22.116727645914825 24.772259486805453 21.54548976480417 24.70169480737414 20.990000000000002 24.56 C 20.80110884305627 25.20612299157323 20.521667726566655 25.822240152026236 20.160000000000004 26.39 L 19.880000000000003 26.810000000000002 C 20.731844212634126 27.035837487894238 21.608752035413723 27.153430490948974 22.490000000000002 27.160000000000004 C 22.921296844452222 26.390348725820562 23.257109674223834 25.570965421177828 23.490000000000002 24.720000000000006 z M 21.16 23.56 C 21.733015040144764 23.694697381323596 22.322059224456186 23.7485528496035 22.91 23.72 L 23.66 23.66 Q 23.66 23.26 23.72 22.91 C 23.7490821317887 22.322048054818296 23.69521991364621 21.7329300438848 23.56 21.16 C 23.291156668759502 21.191903097914842 23.020726013103385 21.20859634826399 22.75 21.21 C 22.159894976805706 21.218676598103432 21.571298429924557 21.148045012477695 21 21 C 21.160860622453537 21.579599661528505 21.241610438164447 22.178494128051092 21.24 22.78 C 21.22754064077732 23.04126158154538 21.2008342731373 23.301648666035604 21.16 23.56 z M 7.77 12 C 7.196032827953371 12.159572909130654 6.649754278976133 12.405735465151261 6.149999999999999 12.73 C 5.940103332368929 12.85899476785109 5.739602141151332 13.0026872882237 5.549999999999998 13.160000000000002 C 5.635428742779715 13.394409516376008 5.739078775964341 13.621770879490672 5.8599999999999985 13.840000000000002 C 6.113450305713488 14.36781765690109 6.451208816612334 14.850812327486443 6.859999999999998 15.27 C 7.072023678616357 15.10862309983176 7.292323149685928 14.9584189150116 7.519999999999996 14.820000000000004 C 8.04551861179989 14.518386062701518 8.611147947068936 14.292807696850172 9.2 14.149999999999999 C 8.76147884090573 13.728191959176199 8.384453835693261 13.246811818592423 8.079999999999998 12.72 C 7.956713118972619 12.489091727638947 7.853016115417594 12.248247074220822 7.77 12 z M 25.11 15.31 C 25.51765141046437 14.886119601240432 25.85521050424486 14.400034506196533 26.110000000000003 13.87 C 26.229434039429027 13.659362177874106 26.329832242132454 13.438486131926568 26.41 13.21 C 26.222964080320235 13.04642828990036 26.02222658953635 12.899220796658843 25.81 12.770000000000003 C 25.32503942262946 12.435359942327702 24.79238262627555 12.175774035243835 24.229999999999997 12 C 24.139199341364748 12.246812261157316 24.025363730525992 12.484527801438247 23.89 12.71 C 23.588154914209053 13.241560867484083 23.210904819674493 13.726596703314229 22.77 14.149999999999999 C 23.358852052931063 14.292807696850172 23.924481388200107 14.518386062701516 24.45 14.819999999999999 C 24.67861155668572 14.97140278045682 24.89892869952415 15.134971568321713 25.109999999999996 15.309999999999997 z M 19.16 14.18 C 19.679154341781246 14.063503527030038 20.208192518503203 13.996536669217132 20.74 13.98 L 21.42 13.98 C 22.063013529993096 13.517390334056405 22.601367813162216 12.924519161452439 23 12.239999999999998 C 23.076510196220987 12.115287987470863 23.143371780540484 11.984907898047839 23.2 11.849999999999998 L 22.759999999999998 11.85 C 21.970791045730003 11.851313527451618 21.190642833134085 12.018244804382622 20.469999999999995 12.34 C 20.37923017781902 12.541687157662386 20.272210880888625 12.735659633348732 20.15 12.92 C 19.854062452931363 13.365680606244377 19.523010443826877 13.787019526922812 19.16 14.18 z M 19.66 16 C 20.161223806312186 16.16657005640337 20.649257550156978 16.370474565817972 21.12 16.61 C 21.317011927006188 16.71484237982969 21.507372991555435 16.831730752798528 21.690000000000005 16.96 C 22.480111705963715 16.87886264432527 23.243797752322475 16.62998281671728 23.93 16.23 C 24.06 16.16 24.18 16.080000000000002 24.3 16 C 24.18 15.92 24.060000000000002 15.83 23.93 15.76 C 23.247952326820243 15.353596744263132 22.48828008532072 15.094694993796928 21.7 15 C 21.518142267128088 15.126457569118749 21.327679403588007 15.240066996493532 21.13 15.34 C 20.658551652306567 15.599184556771439 20.166956113319767 15.81990092121449 19.66 15.999999999999998 z M 17.92 15.34 L 17.62 15.57 L 17.990000000000002 15.57 C 18.882170683081828 15.222888810467378 19.824008223029804 15.020343102951687 20.780000000000005 14.970000000000002 C 21.086319135454005 14.94935284634145 21.393680864546 14.94935284634145 21.700000000000003 14.970000000000002 C 22.087873332694066 14.728340043512187 22.446867753785316 14.443157559467735 22.770000000000003 14.120000000000001 C 22.32597654765974 14.029140651215725 21.873087937929412 13.988883885906361 21.419999999999998 14 C 21.180000000000003 14.16 20.92 14.33 20.64 14.48 C 19.790307565494448 14.922815449537277 18.869815652740325 15.213853333716887 17.92 15.34 z M 23.56 10.84 C 23.69521991364621 10.2670699561152 23.7490821317887 9.677951945181704 23.72 9.09 Q 23.72 8.74 23.66 8.34 L 22.91 8.28 C 22.322028743256435 8.249974887602058 21.732778033956695 8.303849238166606 21.159999999999997 8.440000000000001 C 21.191903097914842 8.708843331240494 21.208596348263985 8.979273986896612 21.21 9.249999999999996 C 21.22182188569618 9.840265674212368 21.151139010600474 10.429289633343231 21 11 C 21.58166581343412 10.831610577182248 22.184456054335843 10.747421996050722 22.789999999999996 10.75 C 23.04809841104651 10.766130914104991 23.305138609858645 10.796174573706411 23.559999999999995 10.84 z M 10.84 8.44 C 10.2670699561152 8.304780086353789 9.677951945181702 8.250917868211298 9.089999999999998 8.28 L 8.34 8.34 Q 8.34 8.74 8.28 9.09 C 8.250917868211298 9.677951945181704 8.304780086353787 10.2670699561152 8.439999999999998 10.839999999999996 C 8.708843331240494 10.808096902085158 8.979273986896617 10.791403651736015 9.250000000000004 10.79 C 9.840265674212368 10.778178114303822 10.429289633343231 10.848860989399524 11 11 C 10.831610577182248 10.418334186565879 10.747421996050722 9.815543945664157 10.75 9.210000000000003 C 10.766130914104991 8.951901588953488 10.79617457370641 8.694861390141353 10.84 8.440000000000001 z M 15.31 6.89 C 14.884339506860165 6.484526419272706 14.398615635713668 6.147218175420972 13.87 5.889999999999999 C 13.649740885720167 5.773152455596972 13.422665780270407 5.669632922230169 13.190000000000005 5.58 C 13.030000000000001 5.79 12.88 6 12.760000000000002 6.19 C 12.4284688534284 6.675344661021143 12.172238703274818 7.208033657393061 12 7.769999999999999 C 12.246812261157316 7.860800658635254 12.484527801438245 7.974636269474009 12.709999999999999 8.11 C 13.241560867484084 8.411845085790949 13.726596703314227 8.789095180325505 14.149999999999999 9.229999999999997 C 14.294692264946704 8.641750622297748 14.520168156930788 8.076378236427207 14.819999999999999 7.5500000000000025 C 14.971402780456822 7.3213884433142775 15.134971568321715 7.101071300475849 15.309999999999999 6.89 z M 20 7.77 C 19.840427090869344 7.196032827953371 19.594264534848737 6.649754278976132 19.27 6.149999999999999 C 19.140779203341157 5.93777341046365 18.99357171009964 5.737035919679764 18.83 5.550000000000001 C 18.60051527820715 5.639482863062748 18.37675851589868 5.743012111295027 18.159999999999997 5.86 C 17.630792166531567 6.111065582482929 17.14742481890779 6.449084706695363 16.729999999999997 6.860000000000001 C 16.891376900168236 7.072023678616357 17.041581084988398 7.292323149685928 17.179999999999993 7.519999999999996 C 17.47983184306921 8.046378236427204 17.705307735053292 8.611750622297741 17.849999999999998 9.199999999999994 C 18.2718080408238 8.76147884090573 18.753188181407573 8.384453835693263 19.279999999999994 8.080000000000002 C 19.510908272361053 7.956713118972619 19.751752925779176 7.853016115417594 20 7.77 z M 15.13 15.51 L 15.290000000000001 15.79 L 15.48 15.7 C 15.485220012908181 15.630097316195576 15.485220012908181 15.559902683804422 15.48 15.489999999999998 z M 5.6 20.12 L 5.18 19.84 C 4.954162512105764 20.691844212634123 4.836569509051029 21.56875203541372 4.83 22.45 C 5.599651274179442 22.881296844452223 6.419034578822172 23.21710967422383 7.269999999999997 23.45 C 7.27 23.27 7.27 23.12 7.27 22.96 C 7.240108076226253 22.287183429048778 7.307468991360145 21.613574277709862 7.470000000000001 20.959999999999997 C 6.809458322342916 20.77153926418649 6.17961647411682 20.488615653218616 5.599999999999999 20.119999999999997 z M 4.83 9.55 C 4.837196114494129 10.427913186181105 4.954785646364716 11.301435422934052 5.179999999999998 12.15 L 5.59 11.88 C 6.1622431259333235 11.52002893543482 6.7814139999233545 11.240729030319752 7.429999999999998 11.05 C 7.266069945992468 10.396669088310363 7.19868854343611 9.722855062746785 7.229999999999999 9.050000000000004 C 7.2299999999999995 8.89 7.2299999999999995 8.72 7.2299999999999995 8.55 C 6.393280606268318 8.787283313658353 5.587654470373202 9.122960870281316 4.829999999999993 9.550000000000002 z M 4.71 18.08 L 4.93 17.65 C 5.240271458201187 17.045098212052583 5.637863254097586 16.48914358219745 6.1099999999999985 16 C 5.637992356954783 15.514474455031138 5.240360057493688 14.961832954085208 4.9300000000000015 14.360000000000001 L 4.710000000000001 13.92 C 4.090290522392873 14.544882880668023 3.549584943925434 15.243434187011045 3.1000000000000005 15.999999999999995 C 3.5495849439254332 16.75656581298895 4.090290522392866 17.455117119331973 4.709999999999994 18.079999999999995 z M 26.46 18.8 C 26.37239530721945 18.56972008114196 26.268809803083766 18.345841733493863 26.15 18.129999999999995 C 25.895483767735627 17.60280615639621 25.557839463238135 17.119974800964798 25.150000000000002 16.7 C 24.94 16.849999999999998 24.71 17 24.48 17.14 C 23.954481388200108 17.441613937298484 23.388852052931064 17.66719230314983 22.8 17.810000000000002 C 23.238521159094272 18.231808040823804 23.615546164306735 18.713188181407578 23.919999999999998 19.24 L 23.92 19.240000000000002 C 24.055363730525993 19.465472198561756 24.169199341364745 19.703187738842686 24.26 19.950000000000003 C 24.83396717204663 19.79042709086935 25.38024572102387 19.544264534848743 25.880000000000003 19.220000000000002 C 26 19.11 26.25 19 26.46 18.8 z M 20.79 17 C 19.833084903246675 16.949229440686633 18.890790751443866 16.743208138679567 18 16.39 C 17.880223351494127 16.400354164243513 17.759776648505873 16.400354164243513 17.64 16.39 L 17.94 16.62 C 18.891060956677897 16.75240940405438 19.811612901805564 17.05023503336039 20.66 17.5 C 20.94 17.65 21.2 17.82 21.44 17.98 C 21.896527893861556 17.961629279453447 22.349463513879094 17.89117262745072 22.790000000000003 17.77 C 22.453298026418857 17.472984960061652 22.084321518416154 17.21470140445976 21.69 17 C 21.390340109070348 17.02020224948904 21.089659890929653 17.02020224948904 20.79 17 z M 14.36 27.07 L 13.92 27.29 C 14.544882880668025 27.90970947760713 15.243434187011047 28.450415056074565 16 28.9 C 16.756565812988953 28.450415056074565 17.455117119331977 27.90970947760713 18.080000000000002 27.29 L 17.65 27.07 C 17.045098212052583 26.759728541798815 16.48914358219745 26.36213674590241 16 25.89 C 15.514474455031136 26.362007643045217 14.961832954085208 26.759639942506315 14.36 27.07 z M 16.52 15.7 L 16.71 15.79 L 16.87 15.51 L 16.53 15.51 C 16.5223925492551 15.573035940485893 16.519051611796407 15.636513752201028 16.52 15.7 z M 11.05 24.57 C 10.494510235195833 24.71169480737414 9.923272354085178 24.782259486805458 9.350000000000001 24.78 L 9.05 24.78 L 8.55 24.78 C 8.782890325776169 25.63096542117783 9.118703155547779 26.45034872582056 9.550000000000002 27.220000000000006 C 10.427913186181105 27.212803885505874 11.301435422934052 27.095214353635285 12.149999999999999 26.87 C 12.06 26.720000000000002 11.97 26.59 11.88 26.46 C 11.515803829504081 25.87218049859491 11.236382188438041 25.235907123155375 11.05 24.57 z M 24.73 23.45 C 25.580965421177826 23.21710967422383 26.400348725820557 22.881296844452223 27.17 22.450000000000003 C 27.16354976993119 21.572033923298807 27.045947672722768 20.69841834403623 26.82 19.849999999999994 L 26.41 20.119999999999997 C 25.837756874066677 20.479971064565177 25.218586000076645 20.759270969680244 24.57 20.949999999999996 C 24.73393005400753 21.603330911689635 24.80131145656389 22.27714493725321 24.77 22.949999999999992 C 24.76 23.11 24.74 23.27 24.73 23.45 z M 27.29 13.92 L 27.07 14.35 C 26.76215907692873 14.956379738294158 26.36432100151653 15.512678742048509 25.89 16 C 26.362007643045217 16.485525544968862 26.75963994250631 17.03816704591479 27.07 17.639999999999997 L 27.07 17.64 L 27.29 18.07 C 27.90905654220735 17.448222961684174 28.449737711714164 16.75306145803256 28.9 16 C 28.447824848015877 15.245199907426594 27.90735083239627 14.546947763023619 27.29 13.92 z M 21 7.43 C 21.65342929245557 7.266634461923188 22.32716028995408 7.199261362173339 22.999999999999996 7.23 L 23 7.2299999999999995 L 23.49 7.2299999999999995 C 23.255713185368577 6.37951051560375 22.919968004903286 5.560292275268438 22.490000000000002 4.790000000000003 C 21.612086813818895 4.797196114494128 20.738564577065944 4.914785646364717 19.889999999999997 5.139999999999999 C 19.979999999999997 5.289999999999999 20.069999999999997 5.419999999999999 20.159999999999997 5.549999999999999 L 20.159999999999997 5.549999999999999 C 20.52949157294695 6.132720870221725 20.812441548359438 6.765989862811584 21 7.429999999999996 z M 17.64 4.93 L 18.080000000000002 4.71 C 17.453052236976383 4.092649167603732 16.754800092573404 3.5521751519841205 15.999999999999998 3.1000000000000005 C 15.243434187011047 3.5495849439254346 14.544882880668021 4.09029052239287 13.919999999999996 4.709999999999999 L 14.35 4.93 C 14.954901787947415 5.240271458201187 15.510856417802549 5.637863254097587 15.999999999999998 6.109999999999999 C 16.485525544968862 5.637992356954782 17.038167045914786 5.240360057493689 17.639999999999993 4.930000000000001 z M 16 19.66 C 15.829008747162503 20.159556933578227 15.625232536135302 20.647283602594143 15.389999999999999 21.12 C 15.280000000000001 21.32 15.17 21.51 15.05 21.69 C 15.118122918541538 22.4813857235054 15.364256655593042 23.247135127665633 15.770000000000003 23.930000000000003 C 15.840558488124724 24.059207020428538 15.92078725593924 24.182893037475917 16.01 24.3 C 16.080000000000002 24.18 16.17 24.060000000000002 16.240000000000002 23.93 C 16.652304555479898 23.250694236813516 16.911652535411925 22.489712664118226 17 21.7 C 16.87 21.509999999999998 16.76 21.33 16.65 21.13 C 16.398715373412788 20.656049883958904 16.181499371717628 20.1648075416637 16 19.66 z M 9 7.23 C 9.672683688323168 7.204639871325558 10.345658588410839 7.2719373613343254 10.999999999999996 7.430000000000001 C 11.188891156943734 6.783877008426771 11.468332273433347 6.167759847973768 11.829999999999998 5.600000000000003 L 12.11 5.180000000000001 C 11.258155787365876 4.954162512105765 10.381247964586274 4.836569509051029 9.499999999999996 4.830000000000001 C 9.070031995096713 5.600292275268437 8.734286814631421 6.419510515603752 8.5 7.270000000000003 z M 26.4 11.88 L 26.4 11.88 L 26.81 12.15 C 27.035947672722763 11.301581655963767 27.15354976993119 10.427966076701194 27.16 9.550000000000004 C 26.389707724731565 9.120031995096713 25.570489484396244 8.78428681463142 24.71999999999999 8.55 C 24.72 8.72 24.72 8.88 24.72 9.040000000000001 C 24.749891923773745 9.712816570951224 24.682531008639856 10.386425722290133 24.52 11.039999999999996 C 25.184010137188412 11.227558451640558 25.817279129778278 11.510508427053052 26.400000000000002 11.880000000000003 z M 15.49 16.53 C 15.484411781362978 16.639929026846513 15.484411781362978 16.75007097315349 15.49 16.86 L 15.77 16.71 C 15.744119890521977 16.64479593355961 15.714057375721191 16.581330624535727 15.68 16.52 z M 20.74 18 C 20.208192518503203 17.983463330782868 19.679154341781242 17.91649647296996 19.159999999999997 17.8 C 19.527323475451706 18.19898643546576 19.861748799248037 18.627050849925062 20.159999999999997 19.080000000000002 C 20.283424156771176 19.268851615340093 20.393685425133988 19.465985398170577 20.489999999999995 19.67 C 21.211296631876394 19.988601125145472 21.991475452231523 20.152132056922966 22.779999999999994 20.150000000000002 L 23.209999999999994 20.150000000000002 C 23.151316161505104 20.016058629578254 23.08452574435458 19.885817316134727 23.009999999999994 19.76 C 22.61074501684295 19.067262050739892 22.068761939227304 18.467331096901187 21.42 18 L 20.740000000000002 18 z M 15.4 16 L 15.4 16 C 15.35 15.94 15.32 15.88 15.280000000000001 15.83 L 15 16 C 15.08 16.06 15.18 16.11 15.27 16.18 C 15.36 16.25 15.35 16.07 15.4 16 z" stroke-linecap="round" />
</g>
		<g transform="matrix(1 0 0 1 2.07 3.11)"  >
<path style="stroke: none; stroke-width: 1; stroke-dasharray: none; stroke-linecap: butt; stroke-dashoffset: 0; stroke-linejoin: miter; stroke-miterlimit: 4; fill: rgb(253,79,0); fill-rule: nonzero; opacity: 1;" vector-effect="non-scaling-stroke"  transform=" translate(-18.07, -19.11)" d="M 15.13 16.49 L 15.47 16.49 C 15.475220012908181 16.420097316195577 15.475220012908181 16.34990268380442 15.47 16.279999999999998 L 15.280000000000001 16.189999999999998 z M 16.66 17.92 L 16.43 17.62 C 16.43 17.740000000000002 16.43 17.87 16.43 17.98 C 16.779155872119734 18.87458221891878 16.978493573237525 19.820591647952373 17.02 20.78 C 17.040174184401465 21.08633487505015 17.040174184401465 21.393665124949855 17.02 21.700000000000003 C 17.261659956487815 22.087873332694066 17.546842440532263 22.446867753785313 17.87 22.770000000000003 C 17.964216701713024 22.326359574492276 18.007828578482016 21.87346700804503 18 21.42 C 17.82036106054396 21.172609036729813 17.659893698357575 20.91184957317694 17.52 20.64 C 17.077184550462725 19.790307565494448 16.786146666283113 18.86981565274033 16.66 17.92 z M 17.53 17.32 L 17.18 17.18 C 17.23 17.29 17.28 17.419999999999998 17.32 17.53 C 18.082872426133896 18.121749088069038 18.736093800108296 18.842661796134053 19.25 19.66 C 19.41391971860053 19.916807393182577 19.560898941438033 20.184042343796218 19.69 20.46 C 20.105081093267714 20.68845939825626 20.54449998803964 20.869593904498124 21 21 C 20.87708134806243 20.55604716705306 20.706068496565695 20.126838441727923 20.49 19.72 C 20.214042343796216 19.59089894143803 19.94680739318257 19.443919718600526 19.689999999999998 19.279999999999998 C 18.861586611129166 18.75713254492179 18.13064838584584 18.09387378494248 17.53 17.32 z M 17.82 19.16 C 17.936496472969964 19.679154341781246 18.003463330782868 20.208192518503203 18.02 20.74 C 18.02 20.970000000000002 18.02 21.200000000000003 18.02 21.42 C 18.47720713002461 22.067812830809167 19.071223298988016 22.607206823316172 19.76 23 C 19.88471201252914 23.076510196220987 20.015092101952163 23.143371780540484 20.150000000000002 23.2 C 20.150000000000002 23.06 20.150000000000002 22.91 20.150000000000002 22.759999999999998 C 20.15192284800239 21.974721402721368 19.988370634873146 21.197848390357464 19.67 20.479999999999997 C 19.465985398170577 20.38368542513399 19.26885161534009 20.273424156771178 19.080000000000002 20.15 C 18.634319393755625 19.854062452931363 18.21298047307719 19.523010443826877 17.82 19.16 z M 16.21 16.71 L 16.490000000000002 16.86 C 16.495588218637025 16.750070973153488 16.495588218637025 16.639929026846513 16.490000000000002 16.53 L 16.3 16.53 C 16.266321184058132 16.588089002452794 16.236263912397114 16.64820354577483 16.21 16.71 z M 15.49 15.47 L 15.700000000000001 15.47 C 15.734057375721193 15.408669375464273 15.764119890521979 15.34520406644039 15.790000000000001 15.280000000000001 L 15.510000000000002 15.120000000000001 C 15.5 15.24 15.49 15.35 15.49 15.47 z M 16.21 15.29 C 16.23588010947802 15.355204066440388 16.265942624278807 15.41866937546427 16.3 15.479999999999999 L 16.51 15.479999999999999 C 16.51 15.36 16.51 15.249999999999998 16.51 15.139999999999999 z M 15.82 15.28 L 15.99 15.399999999999999 L 15.99 15.399999999999999 L 16.16 15.28 C 16.09 15.19 16.04 15.09 15.98 15.01 C 15.94 15.09 15.89 15.19 15.82 15.28 z M 16.52 16.3 C 16.514779987091817 16.369902683804423 16.514779987091817 16.44009731619558 16.52 16.51 L 16.86 16.51 L 16.7 16.23 z M 16 16.6 L 15.83 16.720000000000002 C 15.9 16.810000000000002 15.95 16.910000000000004 16.01 16.990000000000002 C 16.07 16.910000000000004 16.12 16.810000000000002 16.19 16.720000000000002 L 16 16.6 z" stroke-linecap="round" />
</g>
</g>
</g>
</svg>